<?xml version="1.0" encoding="iso-8859-1"?>
<!-- Generator: Adobe Illustrator 19.0.0, SVG Export Plug-In . SVG Version: 6.00 Build 0)  -->
<svg width="29px" height="30px" viewBox="0 0 29 30" version="1.1" xmlns="http://www.w3.org/2000/svg" xmlns:xlink="http://www.w3.org/1999/xlink">
<g>
	<g>
		<path d="M284.522,314.498h-57.039c-0.7,0-1.268-0.57-1.268-1.268v-26.564c-0.001-0.7,0.569-1.268,1.268-1.268h67.232
			c4.93,0,8.924-3.996,8.924-8.924s-3.994-8.924-8.924-8.924h-29.789v-17.904c0-4.928-3.994-8.924-8.924-8.924
			s-8.924,3.996-8.924,8.924v17.904h-19.595c-10.541,0-19.117,8.576-19.117,19.117v26.564c0,10.541,8.576,19.117,19.117,19.117
			h57.039c0.7,0,1.268,0.57,1.268,1.268v26.564c0,0.7-0.57,1.268-1.268,1.268h-67.232c-4.93,0-8.924,3.996-8.924,8.924
			c0,4.929,3.994,8.924,8.924,8.924h29.787v17.904c0,4.928,3.994,8.924,8.924,8.924s8.924-3.996,8.924-8.924v-17.904h19.596
			c10.541,0,19.117-8.575,19.117-19.117v-26.564C303.639,323.073,295.064,314.498,284.522,314.498z"/>
	</g>
</g>
<g>
	<g>
		<path d="M419.3,258.349c-4.93,0-8.924,3.996-8.924,8.924v226.879h-42.15c-4.93,0-8.924,3.996-8.924,8.924s3.994,8.924,8.924,8.924
			H419.3c4.93,0,8.924-3.996,8.924-8.924V267.273C428.224,262.344,424.228,258.349,419.3,258.349z"/>
	</g>
</g>
<g>
	<g>
		<path d="M497.042,233.557L266.097,2.614c-3.486-3.485-9.136-3.485-12.621,0l-144.67,144.669c-3.485,3.485-3.485,9.136,0,12.62
			c3.486,3.485,9.136,3.484,12.621,0L259.786,21.544l222.021,222.021v28.977L266.097,56.831c-1.674-1.674-3.943-2.614-6.311-2.614
			s-4.636,0.94-6.311,2.614L30.193,280.114v-28.977l68.034-68.032c3.485-3.485,3.485-9.136,0-12.62
			c-3.489-3.486-9.138-3.484-12.621,0l-70.647,70.647c-1.673,1.673-2.613,3.943-2.613,6.31v54.218c0,3.61,2.174,6.863,5.509,8.245
			c1.104,0.457,2.263,0.679,3.413,0.679c2.323,0,4.605-0.907,6.314-2.614l56.197-56.197v251.305c0,4.928,3.994,8.924,8.924,8.924
			h246.969c4.93,0,8.924-3.996,8.924-8.924s-3.994-8.924-8.924-8.924H101.625v-260.23L259.786,75.762L484.42,300.396
			c2.553,2.552,6.391,3.316,9.726,1.935c3.335-1.381,5.509-4.636,5.509-8.245v-54.218
			C499.655,237.501,498.715,235.232,497.042,233.557z"/>
	</g>
</g>
<g>
</g>
<g>
</g>
<g>
</g>
<g>
</g>
<g>
</g>
<g>
</g>
<g>
</g>
<g>
</g>
<g>
</g>
<g>
</g>
<g>
</g>
<g>
</g>
<g>
</g>
<g>
</g>
<g>
</g>
</svg>
